<?xml version="1.0"?>
<svg width="508" height="491" xmlns="http://www.w3.org/2000/svg" xmlns:svg="http://www.w3.org/2000/svg" preserveAspectRatio="xMidYMid meet" version="1.0">
 <g class="layer">
  <title>Layer 1</title>
  <g fill="#000000" id="svg_1" transform="matrix(0.1 0 0 -0.1 0 0)">
   <path d="m2335,-506c-619,-45 -1108,-353 -1360,-854c-92,-183 -164,-405 -194,-600c-7,-41 -17,-100 -23,-130c-15,-80 -22,-595 -9,-720c34,-342 104,-601 226,-841c234,-460 657,-757 1205,-846c138,-23 518,-22 667,1c188,29 374,86 523,161c301,151 530,402 635,695c48,134 58,202 58,390c0,162 -2,182 -27,265c-77,255 -256,462 -518,600c-107,56 -108,57 -108,92c0,94 -58,320 -108,418c-116,231 -299,371 -557,426c-164,34 -404,16 -567,-44c-138,-50 -287,-161 -366,-270l-32,-46l122,-84c185,-127 162,-120 208,-66c87,102 210,154 390,165c265,17 459,-107 521,-333c27,-95 25,-96 -95,-86c-181,15 -451,9 -546,-11c-205,-43 -355,-119 -470,-237c-101,-103 -150,-208 -171,-366c-23,-172 20,-320 133,-458c95,-115 229,-199 397,-248c102,-30 346,-32 461,-4c256,62 424,194 544,425c46,90 98,236 111,312c12,73 39,71 128,-10c75,-69 148,-179 178,-271c20,-63 24,-92 23,-194c-1,-136 -17,-212 -69,-320c-106,-221 -324,-393 -620,-488c-162,-52 -266,-68 -475,-74c-158,-4 -204,-2 -315,16c-296,49 -533,166 -722,356c-310,313 -445,773 -413,1412c5,106 12,212 16,235c54,393 185,704 383,912c176,184 401,297 686,346c90,15 162,20 316,20c313,0 502,-35 716,-131c274,-123 511,-395 644,-739c23,-58 44,-108 47,-111c4,-4 45,3 92,16c47,12 117,30 155,40c39,10 74,21 78,25c15,13 -63,223 -136,365c-258,501 -649,778 -1238,874c-67,11 -435,22 -524,15zm650,-2076c57,-12 60,-15 63,-45c2,-18 -6,-74 -17,-125c-27,-121 -34,-145 -61,-198c-60,-118 -136,-187 -251,-227c-60,-21 -90,-25 -198,-25c-206,-1 -342,58 -403,176c-26,49 -30,169 -9,230c19,56 95,133 166,168c107,55 201,68 440,64c124,-3 235,-10 270,-18z" fill="#8321f2" id="svg_2"/>
  </g>
 </g>
</svg>